<svg width="122" height="40" viewBox="0 0 122 40" fill="none" xmlns="http://www.w3.org/2000/svg">
<path d="M11.6445 20.0984L5.12785 26.762V36.1125H0V0H5.12785V20.2058L24.5709 0H30.4466L15.1699 16.2292L31.5149 36.1125H25.5324L11.6445 20.0984Z" fill="white"/>
<path d="M68.9053 33.2106L70.935 29.3414C73.2853 30.9536 76.9175 32.1358 80.4429 32.1358C85.0366 32.1358 86.8527 30.7386 86.8527 28.3741C86.8527 22.2479 69.6531 27.5143 69.6531 16.659C69.6531 11.7151 74.0331 8.49072 80.9771 8.49072C84.5025 8.49072 88.562 9.45802 90.9123 10.9627L88.7757 14.8319C86.3186 13.2197 83.6478 12.6824 80.9771 12.6824C76.7039 12.6824 74.5673 14.2945 74.5673 16.4441C74.5673 22.8928 91.7669 17.6263 91.7669 28.2666C91.7669 33.2106 87.2801 36.3275 80.0156 36.3275C75.6356 36.435 71.1487 35.0377 68.9053 33.2106Z" fill="white"/>
<path d="M122 19.5608V36.1123H117.3V32.4581C115.698 34.9301 112.599 36.3273 108.326 36.3273C102.13 36.3273 98.2842 32.9955 98.2842 28.2665C98.2842 23.8599 101.062 20.3131 109.181 20.3131H116.979V19.3458C116.979 15.1542 114.522 12.7896 109.715 12.7896C106.51 12.7896 103.198 13.9719 101.062 15.6915L99.032 11.9298C101.81 9.67279 105.869 8.38306 110.249 8.38306C117.834 8.49053 122 12.1448 122 19.5608ZM117.086 27.7291V23.8599H109.501C104.587 23.8599 103.198 25.7945 103.198 28.0515C103.198 30.7384 105.442 32.4581 109.181 32.4581C112.92 32.5656 115.911 30.9534 117.086 27.7291Z" fill="white"/>
<path d="M53.0947 28.9116V36.2201L56.1928 34.393V27.0845L53.0947 28.9116Z" fill="white"/>
<path d="M61.6411 19.9909L48.9283 12.5749L41.8776 8.49072L34.9336 20.6357L35.0404 32.0284L47.6464 39.4443L48.9283 38.692V27.9442L54.5903 17.9488L60.3592 21.2806V32.0284L61.6411 31.276V19.9909Z" fill="white"/>
</svg>
